<?xml version="1.0" standalone="no"?>
<!DOCTYPE svg PUBLIC "-//W3C//DTD SVG 20010904//EN"
 "http://www.w3.org/TR/2001/REC-SVG-20010904/DTD/svg10.dtd">
<svg version="1.0" xmlns="http://www.w3.org/2000/svg"
 width="500.000000pt" height="500.000000pt" viewBox="0 0 500.000000 500.000000"
 preserveAspectRatio="xMidYMid meet">
<metadata>
Created by potrace 1.11, written by Peter Selinger 2001-2013
</metadata>
<g transform="translate(0.000000,500.000000) scale(0.100000,-0.100000)"
fill="#000000" stroke="none">
<path d="M2486 3623 c-9 -30 -436 -1819 -436 -1827 0 -3 77 -5 172 -4 l172 3
221 923 221 922 -172 0 c-156 0 -173 -2 -178 -17z"/>
<path d="M3630 3530 c-288 -78 -403 -325 -387 -825 10 -309 57 -456 182 -574
98 -93 222 -134 405 -134 316 1 482 122 562 410 20 71 22 102 23 358 0 259 -2
287 -23 369 -54 214 -146 321 -332 389 -85 30 -328 34 -430 7z m312 -318 c79
-49 108 -165 108 -435 0 -212 -10 -291 -48 -367 -33 -68 -87 -100 -168 -100
-131 0 -190 72 -214 262 -31 252 4 551 73 616 59 56 179 67 249 24z"/>
<path d="M560 2775 l0 -755 180 0 180 0 0 208 0 209 52 77 c28 42 55 73 59 69
4 -4 60 -133 125 -285 l117 -278 199 0 c113 0 198 4 198 9 0 5 -90 208 -200
451 -110 243 -200 446 -200 452 0 6 88 137 196 292 108 154 199 287 201 294 4
9 -43 12 -213 12 l-219 0 -150 -255 c-82 -140 -153 -254 -157 -254 -5 -1 -8
114 -8 254 l0 255 -180 0 -180 0 0 -755z"/>
</g>
</svg>
